<svg width="1581" height="975" viewBox="0 0 1581 975" fill="none" xmlns="http://www.w3.org/2000/svg">
<ellipse rx="8.69167" ry="10.8646" transform="matrix(0.857702 0.514147 -0.514148 0.857701 541.099 708.454)" fill="#0934C1"/>
<path d="M637.267 678.824L587.6 733.457V805.474L632.3 770.517H657.134L699.35 783.124L786.267 820.374L699.35 678.824L763.917 596.874L1581 28L1361.06 462.584L922.916 641.384L1243.27 551.984L1084.33 765.551L816.133 770.517V783.124L893.051 790.574L962.584 800.507L763.917 974.341L632.3 879.974L674.517 820.374L661 811.5L555.317 842.534L401.35 735.941L518.067 733.457L311.95 666.407L81 428.007L597.534 641.384L637.267 678.824Z" fill="#654EFE"/>
</svg>
